{
	"asset":{
		"generator":"Khronos glTF Blender I/O v4.4.56",
		"version":"2.0"
	},
	"scene":0,
	"scenes":[
		{
			"name":"Scene",
			"nodes":[
				0,
				1,
				2,
				3,
				4,
				5
			]
		}
	],
	"nodes":[
		{
			"mesh":0,
			"name":"Object_2",
			"rotation":[
				-0.9975727796554565,
				0,
				0,
				0.06963185220956802
			],
			"scale":[
				0.75,
				0.75,
				0.75
			],
			"translation":[
				-9.033958435058594,
				10.417255401611328,
				0.11016935110092163
			]
		},
		{
			"mesh":1,
			"name":"Object_4",
			"rotation":[
				-0.9975727796554565,
				0,
				0,
				0.06963185220956802
			],
			"scale":[
				0.75,
				0.75,
				0.75
			],
			"translation":[
				-9.033958435058594,
				10.417255401611328,
				0.11016935110092163
			]
		},
		{
			"mesh":2,
			"name":"Object_5",
			"rotation":[
				-0.9975727796554565,
				0,
				0,
				0.06963185220956802
			],
			"scale":[
				0.75,
				0.75,
				0.75
			],
			"translation":[
				-9.033958435058594,
				10.417255401611328,
				0.11016935110092163
			]
		},
		{
			"mesh":3,
			"name":"Object_6",
			"rotation":[
				-0.9975727796554565,
				0,
				0,
				0.06963185220956802
			],
			"scale":[
				0.75,
				0.75,
				0.75
			],
			"translation":[
				-9.033958435058594,
				10.417255401611328,
				0.11016935110092163
			]
		},
		{
			"mesh":4,
			"name":"Object_7",
			"rotation":[
				-0.9975727796554565,
				0,
				0,
				0.06963185220956802
			],
			"scale":[
				0.75,
				0.75,
				0.75
			],
			"translation":[
				-9.033958435058594,
				10.417255401611328,
				0.11016935110092163
			]
		},
		{
			"mesh":5,
			"name":"Object_8",
			"rotation":[
				-0.9975727796554565,
				0,
				0,
				0.06963185220956802
			],
			"scale":[
				0.75,
				0.75,
				0.75
			],
			"translation":[
				-9.033958435058594,
				10.417255401611328,
				0.11016935110092163
			]
		}
	],
	"materials":[
		{
			"doubleSided":true,
			"name":"Acetal_Resin_White_2",
			"pbrMetallicRoughness":{
				"baseColorFactor":[
					0.044895049184560776,
					0.044895049184560776,
					0.044895049184560776,
					1
				],
				"metallicFactor":0.842253565788269,
				"roughnessFactor":0.4000000059604645
			}
		},
		{
			"doubleSided":true,
			"name":"ABS_White",
			"pbrMetallicRoughness":{
				"baseColorFactor":[
					0,
					0,
					0,
					1
				],
				"metallicFactor":0,
				"roughnessFactor":0.4000000059604645
			}
		},
		{
			"doubleSided":true,
			"name":"Acetal_Resin_White",
			"pbrMetallicRoughness":{
				"baseColorFactor":[
					0,
					0,
					0,
					1
				],
				"metallicFactor":0,
				"roughnessFactor":0.4000000059604645
			}
		},
		{
			"doubleSided":true,
			"name":"Acetal_Resin_White_1",
			"pbrMetallicRoughness":{
				"metallicFactor":0.814084529876709
			}
		},
		{
			"doubleSided":true,
			"name":"Aluminum_-_Anodized_Rough_Grey",
			"pbrMetallicRoughness":{
				"baseColorFactor":[
					0.35811084508895874,
					0.35811084508895874,
					0.35811084508895874,
					1
				],
				"metallicFactor":0.8295711278915405,
				"roughnessFactor":0.29635995626449585
			}
		}
	],
	"meshes":[
		{
			"name":"Object_0",
			"primitives":[
				{
					"attributes":{
						"POSITION":0,
						"NORMAL":1,
						"TEXCOORD_0":2
					},
					"indices":3,
					"material":0
				}
			]
		},
		{
			"name":"Object_2",
			"primitives":[
				{
					"attributes":{
						"POSITION":4,
						"NORMAL":5,
						"TEXCOORD_0":6
					},
					"indices":7,
					"material":1
				}
			]
		},
		{
			"name":"Object_3",
			"primitives":[
				{
					"attributes":{
						"POSITION":8,
						"NORMAL":9,
						"TEXCOORD_0":10
					},
					"indices":11,
					"material":2
				}
			]
		},
		{
			"name":"Object_4",
			"primitives":[
				{
					"attributes":{
						"POSITION":12,
						"NORMAL":13,
						"TEXCOORD_0":14
					},
					"indices":15,
					"material":2
				}
			]
		},
		{
			"name":"Object_5",
			"primitives":[
				{
					"attributes":{
						"POSITION":16,
						"NORMAL":17,
						"TEXCOORD_0":18
					},
					"indices":19,
					"material":3
				}
			]
		},
		{
			"name":"Object_6",
			"primitives":[
				{
					"attributes":{
						"POSITION":20,
						"NORMAL":21,
						"TEXCOORD_0":22
					},
					"indices":23,
					"material":4
				}
			]
		}
	],
	"accessors":[
		{
			"bufferView":0,
			"componentType":5126,
			"count":1019,
			"max":[
				25.892257690429688,
				16.907386779785156,
				1.9539560079574585
			],
			"min":[
				-22.802148818969727,
				-19.352733612060547,
				-0.027118999511003494
			],
			"type":"VEC3"
		},
		{
			"bufferView":1,
			"componentType":5126,
			"count":1019,
			"type":"VEC3"
		},
		{
			"bufferView":2,
			"componentType":5126,
			"count":1019,
			"type":"VEC2"
		},
		{
			"bufferView":3,
			"componentType":5123,
			"count":4050,
			"type":"SCALAR"
		},
		{
			"bufferView":4,
			"componentType":5126,
			"count":8250,
			"max":[
				38.484039306640625,
				67.67467498779297,
				45.006797790527344
			],
			"min":[
				-35.470916748046875,
				-31.52910804748535,
				1.1804399490356445
			],
			"type":"VEC3"
		},
		{
			"bufferView":5,
			"componentType":5126,
			"count":8250,
			"type":"VEC3"
		},
		{
			"bufferView":6,
			"componentType":5126,
			"count":8250,
			"type":"VEC2"
		},
		{
			"bufferView":7,
			"componentType":5123,
			"count":34230,
			"type":"SCALAR"
		},
		{
			"bufferView":8,
			"componentType":5126,
			"count":9116,
			"max":[
				51.33356857299805,
				70.37168884277344,
				37
			],
			"min":[
				-48.17953109741211,
				-40.226783752441406,
				5
			],
			"type":"VEC3"
		},
		{
			"bufferView":9,
			"componentType":5126,
			"count":9116,
			"type":"VEC3"
		},
		{
			"bufferView":10,
			"componentType":5126,
			"count":9116,
			"type":"VEC2"
		},
		{
			"bufferView":11,
			"componentType":5123,
			"count":37782,
			"type":"SCALAR"
		},
		{
			"bufferView":12,
			"componentType":5126,
			"count":2196,
			"max":[
				47.46966552734375,
				11.01777458190918,
				34.19632339477539
			],
			"min":[
				-44.31562805175781,
				-15.084789276123047,
				11.189229965209961
			],
			"type":"VEC3"
		},
		{
			"bufferView":13,
			"componentType":5126,
			"count":2196,
			"type":"VEC3"
		},
		{
			"bufferView":14,
			"componentType":5126,
			"count":2196,
			"type":"VEC2"
		},
		{
			"bufferView":15,
			"componentType":5123,
			"count":10356,
			"type":"SCALAR"
		},
		{
			"bufferView":16,
			"componentType":5126,
			"count":8552,
			"max":[
				50.899635314941406,
				11.20655632019043,
				34.48995590209961
			],
			"min":[
				-47.7455940246582,
				-39.76899719238281,
				-0.0019120000069960952
			],
			"type":"VEC3"
		},
		{
			"bufferView":17,
			"componentType":5126,
			"count":8552,
			"type":"VEC3"
		},
		{
			"bufferView":18,
			"componentType":5126,
			"count":8552,
			"type":"VEC2"
		},
		{
			"bufferView":19,
			"componentType":5123,
			"count":31692,
			"type":"SCALAR"
		},
		{
			"bufferView":20,
			"componentType":5126,
			"count":2378,
			"max":[
				38.88572692871094,
				20.29194450378418,
				35.19343185424805
			],
			"min":[
				-35.731685638427734,
				-22.903953552246094,
				1
			],
			"type":"VEC3"
		},
		{
			"bufferView":21,
			"componentType":5126,
			"count":2378,
			"type":"VEC3"
		},
		{
			"bufferView":22,
			"componentType":5126,
			"count":2378,
			"type":"VEC2"
		},
		{
			"bufferView":23,
			"componentType":5123,
			"count":10872,
			"type":"SCALAR"
		}
	],
	"bufferViews":[
		{
			"buffer":0,
			"byteLength":12228,
			"byteOffset":0,
			"target":34962
		},
		{
			"buffer":0,
			"byteLength":12228,
			"byteOffset":12228,
			"target":34962
		},
		{
			"buffer":0,
			"byteLength":8152,
			"byteOffset":24456,
			"target":34962
		},
		{
			"buffer":0,
			"byteLength":8100,
			"byteOffset":32608,
			"target":34963
		},
		{
			"buffer":0,
			"byteLength":99000,
			"byteOffset":40708,
			"target":34962
		},
		{
			"buffer":0,
			"byteLength":99000,
			"byteOffset":139708,
			"target":34962
		},
		{
			"buffer":0,
			"byteLength":66000,
			"byteOffset":238708,
			"target":34962
		},
		{
			"buffer":0,
			"byteLength":68460,
			"byteOffset":304708,
			"target":34963
		},
		{
			"buffer":0,
			"byteLength":109392,
			"byteOffset":373168,
			"target":34962
		},
		{
			"buffer":0,
			"byteLength":109392,
			"byteOffset":482560,
			"target":34962
		},
		{
			"buffer":0,
			"byteLength":72928,
			"byteOffset":591952,
			"target":34962
		},
		{
			"buffer":0,
			"byteLength":75564,
			"byteOffset":664880,
			"target":34963
		},
		{
			"buffer":0,
			"byteLength":26352,
			"byteOffset":740444,
			"target":34962
		},
		{
			"buffer":0,
			"byteLength":26352,
			"byteOffset":766796,
			"target":34962
		},
		{
			"buffer":0,
			"byteLength":17568,
			"byteOffset":793148,
			"target":34962
		},
		{
			"buffer":0,
			"byteLength":20712,
			"byteOffset":810716,
			"target":34963
		},
		{
			"buffer":0,
			"byteLength":102624,
			"byteOffset":831428,
			"target":34962
		},
		{
			"buffer":0,
			"byteLength":102624,
			"byteOffset":934052,
			"target":34962
		},
		{
			"buffer":0,
			"byteLength":68416,
			"byteOffset":1036676,
			"target":34962
		},
		{
			"buffer":0,
			"byteLength":63384,
			"byteOffset":1105092,
			"target":34963
		},
		{
			"buffer":0,
			"byteLength":28536,
			"byteOffset":1168476,
			"target":34962
		},
		{
			"buffer":0,
			"byteLength":28536,
			"byteOffset":1197012,
			"target":34962
		},
		{
			"buffer":0,
			"byteLength":19024,
			"byteOffset":1225548,
			"target":34962
		},
		{
			"buffer":0,
			"byteLength":21744,
			"byteOffset":1244572,
			"target":34963
		}
	],
	"buffers":[
		{
			"byteLength":1266316,
			"uri":"Untitled.bin"
		}
	]
}
